<?xml version="1.0" encoding="UTF-8" standalone="no"?>
<!DOCTYPE svg PUBLIC "-//W3C//DTD SVG 1.1//EN"
 "http://www.w3.org/Graphics/SVG/1.1/DTD/svg11.dtd">
<!-- Generated by graphviz version 2.38.0 (20140413.2041)
 -->
<!-- Title: G Pages: 1 -->
<svg width="1850pt" height="379pt"
 viewBox="0.00 0.00 1850.20 379.20" xmlns="http://www.w3.org/2000/svg" xmlns:xlink="http://www.w3.org/1999/xlink">
<g id="graph0" class="graph" transform="scale(1 1) rotate(0) translate(21.6 357.6)">
<title>G</title>
<polygon fill="#111111" stroke="none" points="-21.6,21.6 -21.6,-357.6 1828.6,-357.6 1828.6,21.6 -21.6,21.6"/>
<!-- ecosystem.js -->
<g id="node1" class="node"><title>ecosystem.js</title>
<path fill="none" stroke="#cfffac" d="M177.333,-71C177.333,-71 91.6667,-71 91.6667,-71 87.8333,-71 84,-67.1667 84,-63.3333 84,-63.3333 84,-55.6667 84,-55.6667 84,-51.8333 87.8333,-48 91.6667,-48 91.6667,-48 177.333,-48 177.333,-48 181.167,-48 185,-51.8333 185,-55.6667 185,-55.6667 185,-63.3333 185,-63.3333 185,-67.1667 181.167,-71 177.333,-71"/>
<text text-anchor="middle" x="134.5" y="-55.8" font-family="Arial" font-size="14.00" fill="#cfffac">ecosystem.js</text>
</g>
<!-- src/actions/index.js -->
<g id="node2" class="node"><title>src/actions/index.js</title>
<path fill="none" stroke="#cfffac" d="M1188.83,-295C1188.83,-295 1067.17,-295 1067.17,-295 1063.33,-295 1059.5,-291.167 1059.5,-287.333 1059.5,-287.333 1059.5,-279.667 1059.5,-279.667 1059.5,-275.833 1063.33,-272 1067.17,-272 1067.17,-272 1188.83,-272 1188.83,-272 1192.67,-272 1196.5,-275.833 1196.5,-279.667 1196.5,-279.667 1196.5,-287.333 1196.5,-287.333 1196.5,-291.167 1192.67,-295 1188.83,-295"/>
<text text-anchor="middle" x="1128" y="-279.8" font-family="Arial" font-size="14.00" fill="#cfffac">src/actions/index.js</text>
</g>
<!-- src/components/App.css -->
<g id="node3" class="node"><title>src/components/App.css</title>
<path fill="none" stroke="#cfffac" d="M855.833,-213C855.833,-213 696.167,-213 696.167,-213 692.333,-213 688.5,-209.167 688.5,-205.333 688.5,-205.333 688.5,-197.667 688.5,-197.667 688.5,-193.833 692.333,-190 696.167,-190 696.167,-190 855.833,-190 855.833,-190 859.667,-190 863.5,-193.833 863.5,-197.667 863.5,-197.667 863.5,-205.333 863.5,-205.333 863.5,-209.167 859.667,-213 855.833,-213"/>
<text text-anchor="middle" x="776" y="-197.8" font-family="Arial" font-size="14.00" fill="#cfffac">src/components/App.css</text>
</g>
<!-- src/components/App.js -->
<g id="node4" class="node"><title>src/components/App.js</title>
<path fill="none" stroke="#c6c5fe" d="M519.333,-213C519.333,-213 371.667,-213 371.667,-213 367.833,-213 364,-209.167 364,-205.333 364,-205.333 364,-197.667 364,-197.667 364,-193.833 367.833,-190 371.667,-190 371.667,-190 519.333,-190 519.333,-190 523.167,-190 527,-193.833 527,-197.667 527,-197.667 527,-205.333 527,-205.333 527,-209.167 523.167,-213 519.333,-213"/>
<text text-anchor="middle" x="445.5" y="-197.8" font-family="Arial" font-size="14.00" fill="#c6c5fe">src/components/App.js</text>
</g>
<!-- src/components/App.js&#45;&gt;src/actions/index.js -->
<g id="edge1" class="edge"><title>src/components/App.js&#45;&gt;src/actions/index.js</title>
<path fill="none" stroke="#757575" d="M527.052,-203.308C547.201,-206.328 568.143,-211.83 586,-221.5 607.324,-233.048 600.121,-252.042 622,-262.5 695.251,-297.515 926.467,-292.882 1049.01,-287.624"/>
<polygon fill="#757575" stroke="#757575" points="1049.24,-291.117 1059.08,-287.18 1048.93,-284.124 1049.24,-291.117"/>
</g>
<!-- src/components/App.js&#45;&gt;src/components/App.css -->
<g id="edge2" class="edge"><title>src/components/App.js&#45;&gt;src/components/App.css</title>
<path fill="none" stroke="#757575" d="M527.281,-201.5C572.95,-201.5 630.345,-201.5 678.387,-201.5"/>
<polygon fill="#757575" stroke="#757575" points="678.489,-205 688.489,-201.5 678.489,-198 678.489,-205"/>
</g>
<!-- src/components/Header.js -->
<g id="node5" class="node"><title>src/components/Header.js</title>
<path fill="none" stroke="#c6c5fe" d="M859.333,-334C859.333,-334 692.667,-334 692.667,-334 688.833,-334 685,-330.167 685,-326.333 685,-326.333 685,-318.667 685,-318.667 685,-314.833 688.833,-311 692.667,-311 692.667,-311 859.333,-311 859.333,-311 863.167,-311 867,-314.833 867,-318.667 867,-318.667 867,-326.333 867,-326.333 867,-330.167 863.167,-334 859.333,-334"/>
<text text-anchor="middle" x="776" y="-318.8" font-family="Arial" font-size="14.00" fill="#c6c5fe">src/components/Header.js</text>
</g>
<!-- src/components/App.js&#45;&gt;src/components/Header.js -->
<g id="edge3" class="edge"><title>src/components/App.js&#45;&gt;src/components/Header.js</title>
<path fill="none" stroke="#757575" d="M527.266,-199.834C547.971,-202.789 569.132,-209.128 586,-221.5 615.814,-243.368 592.472,-274.247 622,-296.5 637.3,-308.03 655.904,-315.161 674.797,-319.447"/>
<polygon fill="#757575" stroke="#757575" points="674.193,-322.895 684.687,-321.437 675.574,-316.033 674.193,-322.895"/>
</g>
<!-- src/containers/AppointmentSelectionWidget.js -->
<g id="node6" class="node"><title>src/containers/AppointmentSelectionWidget.js</title>
<path fill="none" stroke="#c6c5fe" d="M922.333,-172C922.333,-172 629.667,-172 629.667,-172 625.833,-172 622,-168.167 622,-164.333 622,-164.333 622,-156.667 622,-156.667 622,-152.833 625.833,-149 629.667,-149 629.667,-149 922.333,-149 922.333,-149 926.167,-149 930,-152.833 930,-156.667 930,-156.667 930,-164.333 930,-164.333 930,-168.167 926.167,-172 922.333,-172"/>
<text text-anchor="middle" x="776" y="-156.8" font-family="Arial" font-size="14.00" fill="#c6c5fe">src/containers/AppointmentSelectionWidget.js</text>
</g>
<!-- src/components/App.js&#45;&gt;src/containers/AppointmentSelectionWidget.js -->
<g id="edge4" class="edge"><title>src/components/App.js&#45;&gt;src/containers/AppointmentSelectionWidget.js</title>
<path fill="none" stroke="#757575" d="M527.281,-191.418C571.085,-185.951 625.676,-179.137 672.455,-173.299"/>
<polygon fill="#757575" stroke="#757575" points="673.129,-176.742 682.618,-172.03 672.262,-169.796 673.129,-176.742"/>
</g>
<!-- src/components/Header.js&#45;&gt;src/actions/index.js -->
<g id="edge9" class="edge"><title>src/components/Header.js&#45;&gt;src/actions/index.js</title>
<path fill="none" stroke="#757575" d="M867.134,-312.457C923.457,-306.181 995.255,-298.18 1049.1,-292.18"/>
<polygon fill="#757575" stroke="#757575" points="1049.73,-295.632 1059.28,-291.046 1048.96,-288.675 1049.73,-295.632"/>
</g>
<!-- src/components/Header.css -->
<g id="node14" class="node"><title>src/components/Header.css</title>
<path fill="none" stroke="#cfffac" d="M1217.33,-336C1217.33,-336 1038.67,-336 1038.67,-336 1034.83,-336 1031,-332.167 1031,-328.333 1031,-328.333 1031,-320.667 1031,-320.667 1031,-316.833 1034.83,-313 1038.67,-313 1038.67,-313 1217.33,-313 1217.33,-313 1221.17,-313 1225,-316.833 1225,-320.667 1225,-320.667 1225,-328.333 1225,-328.333 1225,-332.167 1221.17,-336 1217.33,-336"/>
<text text-anchor="middle" x="1128" y="-320.8" font-family="Arial" font-size="14.00" fill="#cfffac">src/components/Header.css</text>
</g>
<!-- src/components/Header.js&#45;&gt;src/components/Header.css -->
<g id="edge10" class="edge"><title>src/components/Header.js&#45;&gt;src/components/Header.css</title>
<path fill="none" stroke="#757575" d="M867.134,-323.015C914.032,-323.283 971.66,-323.612 1020.72,-323.893"/>
<polygon fill="#757575" stroke="#757575" points="1020.71,-327.393 1030.73,-323.95 1020.75,-320.393 1020.71,-327.393"/>
</g>
<!-- src/containers/AppointmentSelectionWidget.js&#45;&gt;src/actions/index.js -->
<g id="edge18" class="edge"><title>src/containers/AppointmentSelectionWidget.js&#45;&gt;src/actions/index.js</title>
<path fill="none" stroke="#757575" d="M916.773,-172.144C921.391,-174.593 925.821,-177.366 930,-180.5 961.841,-204.383 934.156,-238.622 966,-262.5 989.603,-280.199 1020.82,-286.936 1049.47,-288.716"/>
<polygon fill="#757575" stroke="#757575" points="1049.34,-292.214 1059.49,-289.149 1049.65,-285.22 1049.34,-292.214"/>
</g>
<!-- src/components/AppointmentBookingSuccess.js -->
<g id="node8" class="node"><title>src/components/AppointmentBookingSuccess.js</title>
<path fill="none" stroke="#c6c5fe" d="M1282.33,-54C1282.33,-54 973.667,-54 973.667,-54 969.833,-54 966,-50.1667 966,-46.3333 966,-46.3333 966,-38.6667 966,-38.6667 966,-34.8333 969.833,-31 973.667,-31 973.667,-31 1282.33,-31 1282.33,-31 1286.17,-31 1290,-34.8333 1290,-38.6667 1290,-38.6667 1290,-46.3333 1290,-46.3333 1290,-50.1667 1286.17,-54 1282.33,-54"/>
<text text-anchor="middle" x="1128" y="-38.8" font-family="Arial" font-size="14.00" fill="#c6c5fe">src/components/AppointmentBookingSuccess.js</text>
</g>
<!-- src/containers/AppointmentSelectionWidget.js&#45;&gt;src/components/AppointmentBookingSuccess.js -->
<g id="edge19" class="edge"><title>src/containers/AppointmentSelectionWidget.js&#45;&gt;src/components/AppointmentBookingSuccess.js</title>
<path fill="none" stroke="#757575" d="M817.474,-148.954C849.413,-138.845 894.369,-122.355 930,-100.5 948.248,-89.3073 946.663,-77.6835 966,-68.5 975.99,-63.7558 986.679,-59.8541 997.621,-56.6482"/>
<polygon fill="#757575" stroke="#757575" points="998.568,-60.018 1007.29,-54.0063 996.723,-53.2655 998.568,-60.018"/>
</g>
<!-- src/utils/index.js -->
<g id="node9" class="node"><title>src/utils/index.js</title>
<path fill="none" stroke="#cfffac" d="M1530.33,-82C1530.33,-82 1429.67,-82 1429.67,-82 1425.83,-82 1422,-78.1667 1422,-74.3333 1422,-74.3333 1422,-66.6667 1422,-66.6667 1422,-62.8333 1425.83,-59 1429.67,-59 1429.67,-59 1530.33,-59 1530.33,-59 1534.17,-59 1538,-62.8333 1538,-66.6667 1538,-66.6667 1538,-74.3333 1538,-74.3333 1538,-78.1667 1534.17,-82 1530.33,-82"/>
<text text-anchor="middle" x="1480" y="-66.8" font-family="Arial" font-size="14.00" fill="#cfffac">src/utils/index.js</text>
</g>
<!-- src/containers/AppointmentSelectionWidget.js&#45;&gt;src/utils/index.js -->
<g id="edge24" class="edge"><title>src/containers/AppointmentSelectionWidget.js&#45;&gt;src/utils/index.js</title>
<path fill="none" stroke="#757575" d="M824.501,-148.912C862.561,-140 917.438,-127.982 966,-120.5 1124.88,-96.0229 1313.39,-81.2772 1411.71,-74.6584"/>
<polygon fill="#757575" stroke="#757575" points="1412.06,-78.143 1421.81,-73.9861 1411.6,-71.1585 1412.06,-78.143"/>
</g>
<!-- src/components/AppointmentForm.js -->
<g id="node10" class="node"><title>src/components/AppointmentForm.js</title>
<path fill="none" stroke="#c6c5fe" d="M1597.83,-132C1597.83,-132 1362.17,-132 1362.17,-132 1358.33,-132 1354.5,-128.167 1354.5,-124.333 1354.5,-124.333 1354.5,-116.667 1354.5,-116.667 1354.5,-112.833 1358.33,-109 1362.17,-109 1362.17,-109 1597.83,-109 1597.83,-109 1601.67,-109 1605.5,-112.833 1605.5,-116.667 1605.5,-116.667 1605.5,-124.333 1605.5,-124.333 1605.5,-128.167 1601.67,-132 1597.83,-132"/>
<text text-anchor="middle" x="1480" y="-116.8" font-family="Arial" font-size="14.00" fill="#c6c5fe">src/components/AppointmentForm.js</text>
</g>
<!-- src/containers/AppointmentSelectionWidget.js&#45;&gt;src/components/AppointmentForm.js -->
<g id="edge20" class="edge"><title>src/containers/AppointmentSelectionWidget.js&#45;&gt;src/components/AppointmentForm.js</title>
<path fill="none" stroke="#757575" d="M868.199,-148.994C899.194,-145.45 934.063,-141.862 966,-139.5 1094.16,-130.019 1240.71,-125.191 1344.26,-122.782"/>
<polygon fill="#757575" stroke="#757575" points="1344.55,-126.276 1354.46,-122.549 1344.39,-119.278 1344.55,-126.276"/>
</g>
<!-- src/components/TimeSlotSelection.js -->
<g id="node16" class="node"><title>src/components/TimeSlotSelection.js</title>
<path fill="none" stroke="#c6c5fe" d="M1246.33,-254C1246.33,-254 1009.67,-254 1009.67,-254 1005.83,-254 1002,-250.167 1002,-246.333 1002,-246.333 1002,-238.667 1002,-238.667 1002,-234.833 1005.83,-231 1009.67,-231 1009.67,-231 1246.33,-231 1246.33,-231 1250.17,-231 1254,-234.833 1254,-238.667 1254,-238.667 1254,-246.333 1254,-246.333 1254,-250.167 1250.17,-254 1246.33,-254"/>
<text text-anchor="middle" x="1128" y="-238.8" font-family="Arial" font-size="14.00" fill="#c6c5fe">src/components/TimeSlotSelection.js</text>
</g>
<!-- src/containers/AppointmentSelectionWidget.js&#45;&gt;src/components/TimeSlotSelection.js -->
<g id="edge21" class="edge"><title>src/containers/AppointmentSelectionWidget.js&#45;&gt;src/components/TimeSlotSelection.js</title>
<path fill="none" stroke="#757575" d="M911.09,-172.124C917.629,-174.511 923.973,-177.284 930,-180.5 951.395,-191.915 944.603,-210.088 966,-221.5 974.307,-225.93 983.186,-229.562 992.348,-232.529"/>
<polygon fill="#757575" stroke="#757575" points="991.403,-235.899 1001.99,-235.384 993.392,-229.187 991.403,-235.899"/>
</g>
<!-- src/containers/AppointmentSelectionWidget.css -->
<g id="node19" class="node"><title>src/containers/AppointmentSelectionWidget.css</title>
<path fill="none" stroke="#cfffac" d="M1280.33,-213C1280.33,-213 975.667,-213 975.667,-213 971.833,-213 968,-209.167 968,-205.333 968,-205.333 968,-197.667 968,-197.667 968,-193.833 971.833,-190 975.667,-190 975.667,-190 1280.33,-190 1280.33,-190 1284.17,-190 1288,-193.833 1288,-197.667 1288,-197.667 1288,-205.333 1288,-205.333 1288,-209.167 1284.17,-213 1280.33,-213"/>
<text text-anchor="middle" x="1128" y="-197.8" font-family="Arial" font-size="14.00" fill="#cfffac">src/containers/AppointmentSelectionWidget.css</text>
</g>
<!-- src/containers/AppointmentSelectionWidget.js&#45;&gt;src/containers/AppointmentSelectionWidget.css -->
<g id="edge22" class="edge"><title>src/containers/AppointmentSelectionWidget.js&#45;&gt;src/containers/AppointmentSelectionWidget.css</title>
<path fill="none" stroke="#757575" d="M875.426,-172.03C920.069,-177.26 972.994,-183.459 1018.76,-188.82"/>
<polygon fill="#757575" stroke="#757575" points="1018.37,-192.298 1028.71,-189.986 1019.18,-185.346 1018.37,-192.298"/>
</g>
<!-- src/utils/crypto.js -->
<g id="node20" class="node"><title>src/utils/crypto.js</title>
<path fill="none" stroke="#cfffac" d="M1181.33,-172C1181.33,-172 1074.67,-172 1074.67,-172 1070.83,-172 1067,-168.167 1067,-164.333 1067,-164.333 1067,-156.667 1067,-156.667 1067,-152.833 1070.83,-149 1074.67,-149 1074.67,-149 1181.33,-149 1181.33,-149 1185.17,-149 1189,-152.833 1189,-156.667 1189,-156.667 1189,-164.333 1189,-164.333 1189,-168.167 1185.17,-172 1181.33,-172"/>
<text text-anchor="middle" x="1128" y="-156.8" font-family="Arial" font-size="14.00" fill="#cfffac">src/utils/crypto.js</text>
</g>
<!-- src/containers/AppointmentSelectionWidget.js&#45;&gt;src/utils/crypto.js -->
<g id="edge23" class="edge"><title>src/containers/AppointmentSelectionWidget.js&#45;&gt;src/utils/crypto.js</title>
<path fill="none" stroke="#757575" d="M930.006,-160.5C974.226,-160.5 1020.35,-160.5 1056.84,-160.5"/>
<polygon fill="#757575" stroke="#757575" points="1056.87,-164 1066.87,-160.5 1056.87,-157 1056.87,-164"/>
</g>
<!-- src/components/App.test.js -->
<g id="node7" class="node"><title>src/components/App.test.js</title>
<path fill="none" stroke="#c6c5fe" d="M221.833,-213C221.833,-213 47.1667,-213 47.1667,-213 43.3333,-213 39.5,-209.167 39.5,-205.333 39.5,-205.333 39.5,-197.667 39.5,-197.667 39.5,-193.833 43.3333,-190 47.1667,-190 47.1667,-190 221.833,-190 221.833,-190 225.667,-190 229.5,-193.833 229.5,-197.667 229.5,-197.667 229.5,-205.333 229.5,-205.333 229.5,-209.167 225.667,-213 221.833,-213"/>
<text text-anchor="middle" x="134.5" y="-197.8" font-family="Arial" font-size="14.00" fill="#c6c5fe">src/components/App.test.js</text>
</g>
<!-- src/components/App.test.js&#45;&gt;src/components/App.js -->
<g id="edge5" class="edge"><title>src/components/App.test.js&#45;&gt;src/components/App.js</title>
<path fill="none" stroke="#757575" d="M229.889,-201.5C269.235,-201.5 314.743,-201.5 353.701,-201.5"/>
<polygon fill="#757575" stroke="#757575" points="353.979,-205 363.979,-201.5 353.979,-198 353.979,-205"/>
</g>
<!-- src/components/AppointmentBookingSuccess.js&#45;&gt;src/utils/index.js -->
<g id="edge6" class="edge"><title>src/components/AppointmentBookingSuccess.js&#45;&gt;src/utils/index.js</title>
<path fill="none" stroke="#757575" d="M1272.87,-54.0099C1320.92,-57.8535 1372.2,-61.9558 1411.59,-65.1072"/>
<polygon fill="#757575" stroke="#757575" points="1411.35,-68.5991 1421.6,-65.9078 1411.91,-61.6214 1411.35,-68.5991"/>
</g>
<!-- src/constants.js -->
<g id="node11" class="node"><title>src/constants.js</title>
<path fill="none" stroke="#cfffac" d="M1788.33,-172C1788.33,-172 1688.67,-172 1688.67,-172 1684.83,-172 1681,-168.167 1681,-164.333 1681,-164.333 1681,-156.667 1681,-156.667 1681,-152.833 1684.83,-149 1688.67,-149 1688.67,-149 1788.33,-149 1788.33,-149 1792.17,-149 1796,-152.833 1796,-156.667 1796,-156.667 1796,-164.333 1796,-164.333 1796,-168.167 1792.17,-172 1788.33,-172"/>
<text text-anchor="middle" x="1738.5" y="-156.8" font-family="Arial" font-size="14.00" fill="#cfffac">src/constants.js</text>
</g>
<!-- src/components/AppointmentForm.js&#45;&gt;src/constants.js -->
<g id="edge7" class="edge"><title>src/components/AppointmentForm.js&#45;&gt;src/constants.js</title>
<path fill="none" stroke="#757575" d="M1554.85,-132.016C1591.35,-137.709 1635.07,-144.527 1670.59,-150.065"/>
<polygon fill="#757575" stroke="#757575" points="1670.43,-153.583 1680.85,-151.666 1671.51,-146.667 1670.43,-153.583"/>
</g>
<!-- src/components/AppointmentSelector.css -->
<g id="node12" class="node"><title>src/components/AppointmentSelector.css</title>
<path fill="none" stroke="#cfffac" d="M578.333,-254C578.333,-254 312.667,-254 312.667,-254 308.833,-254 305,-250.167 305,-246.333 305,-246.333 305,-238.667 305,-238.667 305,-234.833 308.833,-231 312.667,-231 312.667,-231 578.333,-231 578.333,-231 582.167,-231 586,-234.833 586,-238.667 586,-238.667 586,-246.333 586,-246.333 586,-250.167 582.167,-254 578.333,-254"/>
<text text-anchor="middle" x="445.5" y="-238.8" font-family="Arial" font-size="14.00" fill="#cfffac">src/components/AppointmentSelector.css</text>
</g>
<!-- src/components/AppointmentSelector.js -->
<g id="node13" class="node"><title>src/components/AppointmentSelector.js</title>
<path fill="none" stroke="#c6c5fe" d="M261.333,-254C261.333,-254 7.66667,-254 7.66667,-254 3.83333,-254 0,-250.167 0,-246.333 0,-246.333 0,-238.667 0,-238.667 0,-234.833 3.83333,-231 7.66667,-231 7.66667,-231 261.333,-231 261.333,-231 265.167,-231 269,-234.833 269,-238.667 269,-238.667 269,-246.333 269,-246.333 269,-250.167 265.167,-254 261.333,-254"/>
<text text-anchor="middle" x="134.5" y="-238.8" font-family="Arial" font-size="14.00" fill="#c6c5fe">src/components/AppointmentSelector.js</text>
</g>
<!-- src/components/AppointmentSelector.js&#45;&gt;src/components/AppointmentSelector.css -->
<g id="edge8" class="edge"><title>src/components/AppointmentSelector.js&#45;&gt;src/components/AppointmentSelector.css</title>
<path fill="none" stroke="#757575" d="M269.235,-242.5C277.584,-242.5 286.015,-242.5 294.429,-242.5"/>
<polygon fill="#757575" stroke="#757575" points="294.677,-246 304.677,-242.5 294.677,-239 294.677,-246"/>
</g>
<!-- src/components/TimeSlotList.js -->
<g id="node15" class="node"><title>src/components/TimeSlotList.js</title>
<path fill="none" stroke="#c6c5fe" d="M1579.83,-212C1579.83,-212 1380.17,-212 1380.17,-212 1376.33,-212 1372.5,-208.167 1372.5,-204.333 1372.5,-204.333 1372.5,-196.667 1372.5,-196.667 1372.5,-192.833 1376.33,-189 1380.17,-189 1380.17,-189 1579.83,-189 1579.83,-189 1583.67,-189 1587.5,-192.833 1587.5,-196.667 1587.5,-196.667 1587.5,-204.333 1587.5,-204.333 1587.5,-208.167 1583.67,-212 1579.83,-212"/>
<text text-anchor="middle" x="1480" y="-196.8" font-family="Arial" font-size="14.00" fill="#c6c5fe">src/components/TimeSlotList.js</text>
</g>
<!-- src/components/TimeSlotList.js&#45;&gt;src/constants.js -->
<g id="edge11" class="edge"><title>src/components/TimeSlotList.js&#45;&gt;src/constants.js</title>
<path fill="none" stroke="#757575" d="M1554.85,-188.984C1591.35,-183.291 1635.07,-176.473 1670.59,-170.935"/>
<polygon fill="#757575" stroke="#757575" points="1671.51,-174.333 1680.85,-169.334 1670.43,-167.417 1671.51,-174.333"/>
</g>
<!-- src/components/TimeSlotSelection.js&#45;&gt;src/constants.js -->
<g id="edge14" class="edge"><title>src/components/TimeSlotSelection.js&#45;&gt;src/constants.js</title>
<path fill="none" stroke="#757575" d="M1254.09,-235.52C1266.63,-232.099 1278.84,-227.536 1290,-221.5 1311.62,-209.801 1303.91,-190.286 1326,-179.5 1384.87,-150.759 1570.24,-153.425 1670.89,-157.264"/>
<polygon fill="#757575" stroke="#757575" points="1670.82,-160.764 1680.95,-157.662 1671.1,-153.769 1670.82,-160.764"/>
</g>
<!-- src/components/TimeSlotSelection.js&#45;&gt;src/components/TimeSlotList.js -->
<g id="edge12" class="edge"><title>src/components/TimeSlotSelection.js&#45;&gt;src/components/TimeSlotList.js</title>
<path fill="none" stroke="#757575" d="M1225.1,-230.968C1270.92,-225.47 1325.86,-218.877 1372.89,-213.233"/>
<polygon fill="#757575" stroke="#757575" points="1373.6,-216.673 1383.11,-212.007 1372.77,-209.723 1373.6,-216.673"/>
</g>
<!-- src/components/TimeSlotSelectionCalendar.js -->
<g id="node17" class="node"><title>src/components/TimeSlotSelectionCalendar.js</title>
<path fill="none" stroke="#c6c5fe" d="M1626.33,-253C1626.33,-253 1333.67,-253 1333.67,-253 1329.83,-253 1326,-249.167 1326,-245.333 1326,-245.333 1326,-237.667 1326,-237.667 1326,-233.833 1329.83,-230 1333.67,-230 1333.67,-230 1626.33,-230 1626.33,-230 1630.17,-230 1634,-233.833 1634,-237.667 1634,-237.667 1634,-245.333 1634,-245.333 1634,-249.167 1630.17,-253 1626.33,-253"/>
<text text-anchor="middle" x="1480" y="-237.8" font-family="Arial" font-size="14.00" fill="#c6c5fe">src/components/TimeSlotSelectionCalendar.js</text>
</g>
<!-- src/components/TimeSlotSelection.js&#45;&gt;src/components/TimeSlotSelectionCalendar.js -->
<g id="edge13" class="edge"><title>src/components/TimeSlotSelection.js&#45;&gt;src/components/TimeSlotSelectionCalendar.js</title>
<path fill="none" stroke="#757575" d="M1254.37,-242.142C1274.26,-242.085 1295.08,-242.025 1315.69,-241.967"/>
<polygon fill="#757575" stroke="#757575" points="1315.79,-245.466 1325.78,-241.938 1315.77,-238.466 1315.79,-245.466"/>
</g>
<!-- src/utils/time&#45;slot.js -->
<g id="node18" class="node"><title>src/utils/time&#45;slot.js</title>
<path fill="none" stroke="#cfffac" d="M1799.33,-273C1799.33,-273 1677.67,-273 1677.67,-273 1673.83,-273 1670,-269.167 1670,-265.333 1670,-265.333 1670,-257.667 1670,-257.667 1670,-253.833 1673.83,-250 1677.67,-250 1677.67,-250 1799.33,-250 1799.33,-250 1803.17,-250 1807,-253.833 1807,-257.667 1807,-257.667 1807,-265.333 1807,-265.333 1807,-269.167 1803.17,-273 1799.33,-273"/>
<text text-anchor="middle" x="1738.5" y="-257.8" font-family="Arial" font-size="14.00" fill="#cfffac">src/utils/time&#45;slot.js</text>
</g>
<!-- src/components/TimeSlotSelection.js&#45;&gt;src/utils/time&#45;slot.js -->
<g id="edge15" class="edge"><title>src/components/TimeSlotSelection.js&#45;&gt;src/utils/time&#45;slot.js</title>
<path fill="none" stroke="#757575" d="M1228.83,-254.007C1259.92,-257.084 1294.34,-259.977 1326,-261.5 1442.11,-267.086 1576.86,-265.571 1659.65,-263.725"/>
<polygon fill="#757575" stroke="#757575" points="1659.82,-267.223 1669.73,-263.493 1659.66,-260.224 1659.82,-267.223"/>
</g>
<!-- src/components/TimeSlotSelectionCalendar.js&#45;&gt;src/constants.js -->
<g id="edge16" class="edge"><title>src/components/TimeSlotSelectionCalendar.js&#45;&gt;src/constants.js</title>
<path fill="none" stroke="#757575" d="M1599.45,-229.945C1611.27,-227.397 1622.97,-224.289 1634,-220.5 1663.26,-210.449 1693.51,-191.781 1713.69,-177.926"/>
<polygon fill="#757575" stroke="#757575" points="1715.78,-180.741 1721.96,-172.135 1711.76,-175.009 1715.78,-180.741"/>
</g>
<!-- src/components/TimeSlotSelectionCalendar.js&#45;&gt;src/utils/time&#45;slot.js -->
<g id="edge17" class="edge"><title>src/components/TimeSlotSelectionCalendar.js&#45;&gt;src/utils/time&#45;slot.js</title>
<path fill="none" stroke="#757575" d="M1628.72,-253.018C1639.3,-253.843 1649.7,-254.654 1659.62,-255.427"/>
<polygon fill="#757575" stroke="#757575" points="1659.53,-258.931 1669.77,-256.219 1660.07,-251.952 1659.53,-258.931"/>
</g>
<!-- src/containers/KeysDisplay.js -->
<g id="node21" class="node"><title>src/containers/KeysDisplay.js</title>
<path fill="none" stroke="#c6c5fe" d="M868.833,-254C868.833,-254 683.167,-254 683.167,-254 679.333,-254 675.5,-250.167 675.5,-246.333 675.5,-246.333 675.5,-238.667 675.5,-238.667 675.5,-234.833 679.333,-231 683.167,-231 683.167,-231 868.833,-231 868.833,-231 872.667,-231 876.5,-234.833 876.5,-238.667 876.5,-238.667 876.5,-246.333 876.5,-246.333 876.5,-250.167 872.667,-254 868.833,-254"/>
<text text-anchor="middle" x="776" y="-238.8" font-family="Arial" font-size="14.00" fill="#c6c5fe">src/containers/KeysDisplay.js</text>
</g>
<!-- src/containers/KeysDisplay.js&#45;&gt;src/actions/index.js -->
<g id="edge25" class="edge"><title>src/containers/KeysDisplay.js&#45;&gt;src/actions/index.js</title>
<path fill="none" stroke="#757575" d="M875.426,-254.03C930.491,-260.48 998.156,-268.407 1049.44,-274.414"/>
<polygon fill="#757575" stroke="#757575" points="1049.13,-277.901 1059.47,-275.589 1049.94,-270.949 1049.13,-277.901"/>
</g>
<!-- src/index.css -->
<g id="node22" class="node"><title>src/index.css</title>
<path fill="none" stroke="#cfffac" d="M487.833,-51C487.833,-51 403.167,-51 403.167,-51 399.333,-51 395.5,-47.1667 395.5,-43.3333 395.5,-43.3333 395.5,-35.6667 395.5,-35.6667 395.5,-31.8333 399.333,-28 403.167,-28 403.167,-28 487.833,-28 487.833,-28 491.667,-28 495.5,-31.8333 495.5,-35.6667 495.5,-35.6667 495.5,-43.3333 495.5,-43.3333 495.5,-47.1667 491.667,-51 487.833,-51"/>
<text text-anchor="middle" x="445.5" y="-35.8" font-family="Arial" font-size="14.00" fill="#cfffac">src/index.css</text>
</g>
<!-- src/index.js -->
<g id="node23" class="node"><title>src/index.js</title>
<path fill="none" stroke="#c6c5fe" d="M170.833,-112C170.833,-112 98.1667,-112 98.1667,-112 94.3333,-112 90.5,-108.167 90.5,-104.333 90.5,-104.333 90.5,-96.6667 90.5,-96.6667 90.5,-92.8333 94.3333,-89 98.1667,-89 98.1667,-89 170.833,-89 170.833,-89 174.667,-89 178.5,-92.8333 178.5,-96.6667 178.5,-96.6667 178.5,-104.333 178.5,-104.333 178.5,-108.167 174.667,-112 170.833,-112"/>
<text text-anchor="middle" x="134.5" y="-96.8" font-family="Arial" font-size="14.00" fill="#c6c5fe">src/index.js</text>
</g>
<!-- src/index.js&#45;&gt;src/components/App.js -->
<g id="edge26" class="edge"><title>src/index.js&#45;&gt;src/components/App.js</title>
<path fill="none" stroke="#757575" d="M170.946,-112.086C227.374,-130.53 337.562,-166.546 399.484,-186.786"/>
<polygon fill="#757575" stroke="#757575" points="398.4,-190.114 408.993,-189.894 400.575,-183.46 398.4,-190.114"/>
</g>
<!-- src/index.js&#45;&gt;src/index.css -->
<g id="edge27" class="edge"><title>src/index.js&#45;&gt;src/index.css</title>
<path fill="none" stroke="#757575" d="M178.511,-97.5879C205.138,-94.8495 239.717,-89.5813 269,-79.5 286.306,-73.5419 287.653,-65.3401 305,-59.5 330.577,-50.8892 360.011,-45.9857 385.23,-43.1934"/>
<polygon fill="#757575" stroke="#757575" points="385.8,-46.6534 395.393,-42.1552 385.089,-39.6896 385.8,-46.6534"/>
</g>
<!-- src/redux&#45;store.js -->
<g id="node24" class="node"><title>src/redux&#45;store.js</title>
<path fill="none" stroke="#c6c5fe" d="M500.833,-92C500.833,-92 390.167,-92 390.167,-92 386.333,-92 382.5,-88.1667 382.5,-84.3333 382.5,-84.3333 382.5,-76.6667 382.5,-76.6667 382.5,-72.8333 386.333,-69 390.167,-69 390.167,-69 500.833,-69 500.833,-69 504.667,-69 508.5,-72.8333 508.5,-76.6667 508.5,-76.6667 508.5,-84.3333 508.5,-84.3333 508.5,-88.1667 504.667,-92 500.833,-92"/>
<text text-anchor="middle" x="445.5" y="-76.8" font-family="Arial" font-size="14.00" fill="#c6c5fe">src/redux&#45;store.js</text>
</g>
<!-- src/index.js&#45;&gt;src/redux&#45;store.js -->
<g id="edge28" class="edge"><title>src/index.js&#45;&gt;src/redux&#45;store.js</title>
<path fill="none" stroke="#757575" d="M178.79,-97.698C228.878,-94.4561 312.137,-89.0672 372.118,-85.1849"/>
<polygon fill="#757575" stroke="#757575" points="372.531,-88.6656 382.284,-84.5269 372.078,-81.6802 372.531,-88.6656"/>
</g>
<!-- src/registerServiceWorker.js -->
<g id="node25" class="node"><title>src/registerServiceWorker.js</title>
<path fill="none" stroke="#cfffac" d="M535.833,-133C535.833,-133 355.167,-133 355.167,-133 351.333,-133 347.5,-129.167 347.5,-125.333 347.5,-125.333 347.5,-117.667 347.5,-117.667 347.5,-113.833 351.333,-110 355.167,-110 355.167,-110 535.833,-110 535.833,-110 539.667,-110 543.5,-113.833 543.5,-117.667 543.5,-117.667 543.5,-125.333 543.5,-125.333 543.5,-129.167 539.667,-133 535.833,-133"/>
<text text-anchor="middle" x="445.5" y="-117.8" font-family="Arial" font-size="14.00" fill="#cfffac">src/registerServiceWorker.js</text>
</g>
<!-- src/index.js&#45;&gt;src/registerServiceWorker.js -->
<g id="edge29" class="edge"><title>src/index.js&#45;&gt;src/registerServiceWorker.js</title>
<path fill="none" stroke="#757575" d="M178.79,-103.442C219.758,-106.226 282.917,-110.519 337.38,-114.22"/>
<polygon fill="#757575" stroke="#757575" points="337.227,-117.718 347.441,-114.904 337.701,-110.734 337.227,-117.718"/>
</g>
<!-- src/localStorage.js -->
<g id="node26" class="node"><title>src/localStorage.js</title>
<path fill="none" stroke="#c6c5fe" d="M1539.33,-23C1539.33,-23 1420.67,-23 1420.67,-23 1416.83,-23 1413,-19.1667 1413,-15.3333 1413,-15.3333 1413,-7.66667 1413,-7.66667 1413,-3.83333 1416.83,-0 1420.67,-0 1420.67,-0 1539.33,-0 1539.33,-0 1543.17,-0 1547,-3.83333 1547,-7.66667 1547,-7.66667 1547,-15.3333 1547,-15.3333 1547,-19.1667 1543.17,-23 1539.33,-23"/>
<text text-anchor="middle" x="1480" y="-7.8" font-family="Arial" font-size="14.00" fill="#c6c5fe">src/localStorage.js</text>
</g>
<!-- src/redux&#45;store.js&#45;&gt;src/localStorage.js -->
<g id="edge31" class="edge"><title>src/redux&#45;store.js&#45;&gt;src/localStorage.js</title>
<path fill="none" stroke="#757575" d="M508.619,-72.9279C542.183,-68.8715 584.351,-63.8319 622,-59.5 774.811,-41.9177 812.504,-31.4536 966,-21.5 1120.91,-11.4548 1302.63,-10.4518 1402.88,-10.8353"/>
<polygon fill="#757575" stroke="#757575" points="1402.9,-14.3353 1412.92,-10.8794 1402.94,-7.33536 1402.9,-14.3353"/>
</g>
<!-- src/reducers/index.js -->
<g id="node27" class="node"><title>src/reducers/index.js</title>
<path fill="none" stroke="#cfffac" d="M842.333,-92C842.333,-92 709.667,-92 709.667,-92 705.833,-92 702,-88.1667 702,-84.3333 702,-84.3333 702,-76.6667 702,-76.6667 702,-72.8333 705.833,-69 709.667,-69 709.667,-69 842.333,-69 842.333,-69 846.167,-69 850,-72.8333 850,-76.6667 850,-76.6667 850,-84.3333 850,-84.3333 850,-88.1667 846.167,-92 842.333,-92"/>
<text text-anchor="middle" x="776" y="-76.8" font-family="Arial" font-size="14.00" fill="#cfffac">src/reducers/index.js</text>
</g>
<!-- src/redux&#45;store.js&#45;&gt;src/reducers/index.js -->
<g id="edge32" class="edge"><title>src/redux&#45;store.js&#45;&gt;src/reducers/index.js</title>
<path fill="none" stroke="#757575" d="M508.675,-80.5C560.526,-80.5 634.864,-80.5 691.832,-80.5"/>
<polygon fill="#757575" stroke="#757575" points="691.896,-84.0001 701.896,-80.5 691.896,-77.0001 691.896,-84.0001"/>
</g>
<!-- src/localStorage.js&#45;&gt;src/constants.js -->
<g id="edge30" class="edge"><title>src/localStorage.js&#45;&gt;src/constants.js</title>
<path fill="none" stroke="#757575" d="M1547.07,-19.36C1575.28,-24.819 1607.7,-34.0228 1634,-49.5 1673.24,-72.5889 1706.66,-115.075 1724.24,-140.257"/>
<polygon fill="#757575" stroke="#757575" points="1721.46,-142.391 1729.98,-148.683 1727.24,-138.449 1721.46,-142.391"/>
</g>
</g>
</svg>
